<svg class="drag-icon finger-down" xmlns="http://www.w3.org/2000/svg" version="1.1" width="50px"
    viewBox="0 0 24 24">
    <path
        d="M16.5,23.5h-2.343c-1.202,0-2.333-0.468-3.183-1.318l-7.121-7.122c-0.585-0.585-0.585-1.536,0-2.121    c0.912-0.911,2.379-1.015,3.409-0.242L9,14V5.5c0-1.103,0.897-2,2-2s2,0.897,2,2v3.269C13.294,8.598,13.636,8.5,14,8.5    c0.871,0,1.614,0.56,1.888,1.338C16.206,9.625,16.589,9.5,17,9.5c0.871,0,1.614,0.56,1.888,1.338    C19.206,10.625,19.589,10.5,20,10.5c1.103,0,2,0.897,2,2V18C22,21.033,19.532,23.5,16.5,23.5z M5.7,13.178    c-0.416,0-0.83,0.159-1.14,0.468c-0.195,0.195-0.195,0.512,0,0.707l7.121,7.122c0.661,0.661,1.54,1.025,2.476,1.025H16.5    c2.481,0,4.5-2.019,4.5-4.5v-5.5c0-0.551-0.448-1-1-1s-1,0.449-1,1V13c0,0.276-0.224,0.5-0.5,0.5S18,13.276,18,13v-1.5    c0-0.551-0.448-1-1-1s-1,0.449-1,1V13c0,0.276-0.224,0.5-0.5,0.5S15,13.276,15,13v-2.5c0-0.551-0.448-1-1-1s-1,0.449-1,1V13    c0,0.276-0.224,0.5-0.5,0.5S12,13.276,12,13V5.5c0-0.551-0.448-1-1-1s-1,0.449-1,1V15c0,0.189-0.107,0.362-0.276,0.447    S9.351,15.514,9.2,15.4l-2.537-1.903C6.378,13.283,6.038,13.178,5.7,13.178z" />
    <path style="opacity:1;fill:#ffffff"
        d="m 26.42723,22.406488 c -0.500485,-0.109484 -1.028483,-0.363097 -1.431357,-0.68752 -0.152659,-0.122934 -1.912774,-1.860932 -3.911366,-3.862219 l -3.633803,-3.638704 2.48e-4,-0.186957 c 3.82e-4,-0.288896 0.175029,-0.493773 0.578296,-0.678395 0.423264,-0.193777 0.904518,-0.202451 1.308861,-0.02359 0.08833,0.03907 0.774285,0.530986 1.524342,1.093139 0.750056,0.562154 1.405848,1.038107 1.457315,1.057675 0.210399,0.07999 0.479606,-0.002 0.602917,-0.183621 0.06445,-0.09492 0.06889,-0.355122 0.08671,-5.076577 l 0.01878,-4.9765255 0.115836,-0.2065728 c 0.336841,-0.600695 1.113567,-0.6928294 1.571127,-0.1863654 0.28591,0.3164684 0.263943,-0.022288 0.284868,4.3929382 0.01422,3.0010975 0.0298,3.9816535 0.0642,4.0416295 0.06444,0.112342 0.207619,0.197286 0.374468,0.222162 0.182464,0.02721 0.373742,-0.06691 0.490159,-0.241177 0.08475,-0.126859 0.08526,-0.135815 0.08546,-1.502347 1.13e-4,-0.819765 0.0157,-1.430483 0.03857,-1.512843 0.06595,-0.237435 0.262577,-0.4840698 0.484923,-0.608241 0.171152,-0.095582 0.244563,-0.1139317 0.450704,-0.1126592 0.135438,8.338e-4 0.306635,0.027553 0.380438,0.059372 0.187705,0.080926 0.399997,0.2765315 0.497133,0.4580592 0.07961,0.148772 0.08291,0.201599 0.101074,1.61858 0.01768,1.378615 0.0232,1.472272 0.0939,1.591996 0.197028,0.333658 0.658383,0.341543 0.872716,0.01492 0.05764,-0.08783 0.0687,-0.228181 0.08505,-1.079289 0.01752,-0.911609 0.02434,-0.988574 0.09999,-1.128563 0.24775,-0.458406 0.791739,-0.663944 1.243208,-0.469727 0.20312,0.08738 0.465829,0.33705 0.543961,0.516963 0.02889,0.06653 0.0518,0.451125 0.06469,1.086261 0.01864,0.918084 0.02512,0.990285 0.09775,1.089202 0.240488,0.327522 0.70632,0.293084 0.889291,-0.06574 0.04944,-0.09695 0.06639,-0.226273 0.06859,-0.523151 0.0016,-0.216902 0.02276,-0.448182 0.04701,-0.513956 0.319382,-0.866266 1.542995,-0.873246 1.847377,-0.01054 0.08335,0.236233 0.08322,6.066729 -1.5e-4,6.544771 -0.308164,1.767141 -1.571591,3.148821 -3.313229,3.623337 l -0.367841,0.100222 -1.784038,0.0087 c -1.428136,0.007 -1.83274,-0.0019 -2.028169,-0.04467 z"
        transform="translate(-13,0)" />
    <path
        d="M7.954,7.692c-0.175,0-0.346-0.093-0.437-0.257C7.174,6.818,7,6.167,7,5.5c0-2.206,1.794-4,4-4s4,1.794,4,4 c0,0.329-0.049,0.662-0.154,1.048c-0.071,0.266-0.343,0.429-0.614,0.351c-0.266-0.073-0.423-0.348-0.351-0.614 C13.962,5.987,14,5.738,14,5.5c0-1.654-1.346-3-3-3s-3,1.346-3,3c0,0.495,0.132,0.983,0.391,1.449 c0.135,0.241,0.048,0.546-0.193,0.68C8.12,7.672,8.037,7.692,7.954,7.692z" />
</svg>